<?xml version="1.0" encoding="UTF-8" standalone="no"?>
<!DOCTYPE svg PUBLIC "-//W3C//DTD SVG 20010904//EN"
              "http://www.w3.org/TR/2001/REC-SVG-20010904/DTD/svg10.dtd">

<svg xmlns="http://www.w3.org/2000/svg"
     width="162.56mm" height="91.4402mm"
     viewBox="0 0 1920 1080">
  <path id="選択範囲"
        fill="none" stroke="black" stroke-width="1"
        d="M 1593.76,452.00
           C 1597.85,422.94 1600.85,405.43 1593.76,376.00
             1585.84,345.13 1571.39,326.33 1571.00,292.00
             1570.71,266.24 1581.90,237.60 1606.00,225.37
             1633.16,211.59 1667.90,219.30 1678.91,250.00
             1680.75,255.12 1681.93,261.56 1682.00,267.00
             1682.57,315.88 1654.62,341.16 1628.72,378.00
             1612.59,400.94 1600.80,422.84 1597.00,451.00
             1603.36,447.94 1609.15,443.92 1615.00,440.00
             1650.64,416.12 1669.67,390.60 1696.87,359.00
             1717.30,335.26 1745.08,306.05 1779.00,306.00
             1779.00,306.00 1785.00,306.00 1785.00,306.00
             1809.71,306.29 1829.43,327.60 1829.99,352.00
             1830.54,376.22 1814.12,398.89 1793.00,409.63
             1775.49,418.53 1752.48,422.58 1733.00,424.00
             1733.00,424.00 1724.00,424.00 1724.00,424.00
             1724.00,424.00 1709.00,425.00 1709.00,425.00
             1709.00,425.00 1699.00,426.04 1699.00,426.04
             1699.00,426.04 1689.00,426.04 1689.00,426.04
             1655.31,429.38 1626.19,437.48 1597.00,455.00
             1603.88,456.96 1606.86,459.79 1613.00,462.56
             1627.36,469.05 1637.20,473.29 1653.00,475.73
             1653.00,475.73 1674.00,477.82 1674.00,477.82
             1674.00,477.82 1686.00,477.00 1686.00,477.00
             1686.00,477.00 1711.00,477.00 1711.00,477.00
             1733.09,477.03 1760.14,487.30 1774.82,504.00
             1792.34,523.93 1794.07,553.28 1778.96,575.00
             1774.56,581.33 1768.83,587.00 1762.00,590.68
             1739.64,602.71 1713.39,598.51 1692.00,586.69
             1659.26,568.60 1656.88,534.20 1642.52,504.00
             1632.37,482.68 1615.78,468.91 1596.00,457.00
             1591.07,484.05 1590.05,508.19 1597.42,535.00
             1597.42,535.00 1614.57,584.00 1614.57,584.00
             1617.22,593.38 1617.44,599.56 1618.09,609.00
             1618.09,609.00 1618.92,617.00 1618.92,617.00
             1618.92,617.00 1618.17,624.00 1618.17,624.00
             1617.19,634.13 1617.01,638.15 1613.19,648.00
             1606.62,664.95 1593.58,679.69 1576.00,685.48
             1550.49,693.89 1521.11,685.59 1510.62,659.00
             1508.44,653.50 1507.07,647.93 1507.00,642.00
             1506.47,596.97 1535.16,567.15 1559.57,533.00
             1576.05,509.94 1589.16,485.44 1593.00,457.00
             1593.00,457.00 1576.00,467.74 1576.00,467.74
             1555.42,481.66 1536.83,498.58 1520.17,517.00
             1490.42,549.89 1456.75,602.56 1407.00,602.00
             1381.90,601.71 1360.30,581.32 1360.00,556.00
             1359.74,533.72 1371.49,514.24 1390.00,502.08
             1406.14,491.47 1436.67,484.23 1456.00,484.00
             1456.00,484.00 1474.00,483.00 1474.00,483.00
             1514.63,482.53 1557.17,476.67 1592.00,454.00
             1592.00,454.00 1568.00,442.43 1568.00,442.43
             1552.37,435.74 1532.02,431.08 1515.00,431.00
             1515.00,431.00 1496.00,432.00 1496.00,432.00
             1470.19,432.30 1442.49,427.41 1422.00,410.54
             1393.52,387.08 1393.63,342.16 1423.00,319.53
             1432.31,312.35 1446.39,308.75 1458.00,308.09
             1462.88,307.82 1475.08,309.84 1480.00,311.15
             1486.11,312.79 1493.58,315.96 1499.00,319.21
             1511.20,326.51 1521.25,337.27 1527.63,350.00
             1527.63,350.00 1549.26,408.00 1549.26,408.00
             1558.30,425.60 1576.21,443.32 1593.76,452.00 Z
           M 156.00,415.00
           C 158.93,402.67 172.28,390.70 183.00,384.73
             195.63,377.70 205.57,374.93 220.00,375.00
             242.42,375.10 266.60,387.14 274.77,409.00
             276.74,414.26 277.93,419.38 278.00,425.00
             278.21,443.03 277.22,457.08 265.48,472.00
             241.00,503.13 189.27,504.47 164.52,473.00
             152.26,457.41 151.78,440.78 152.00,422.00
             152.30,396.88 162.90,369.31 175.60,348.00
             206.32,296.47 261.04,262.11 319.00,249.79
             328.48,247.77 345.51,245.11 355.00,245.00
             355.00,245.00 385.00,245.00 385.00,245.00
             392.54,245.01 404.42,246.51 412.00,247.75
             451.18,254.17 488.45,271.26 512.36,304.00
             518.33,312.17 524.60,324.31 527.57,334.00
             532.19,349.11 533.18,360.35 533.00,376.00
             532.76,396.25 524.07,415.25 513.41,432.00
             493.23,463.72 459.98,492.89 430.00,515.37
             430.00,515.37 382.00,549.66 382.00,549.66
             382.00,549.66 343.00,576.15 343.00,576.15
             343.00,576.15 293.00,614.12 293.00,614.12
             293.00,614.12 190.00,692.35 190.00,692.35
             190.00,692.35 136.00,733.35 136.00,733.35
             136.00,733.35 112.00,752.00 112.00,752.00
             112.00,752.00 448.00,752.00 448.00,752.00
             450.59,751.99 454.30,752.35 456.28,750.40
             458.29,748.42 459.43,741.00 460.12,738.00
             460.12,738.00 467.00,707.00 467.00,707.00
             467.98,702.43 468.36,693.87 473.00,692.00
             473.00,692.00 445.58,816.00 445.58,816.00
             445.58,816.00 439.79,842.00 439.79,842.00
             439.79,842.00 436.42,851.98 436.42,851.98
             436.42,851.98 429.00,853.00 429.00,853.00
             429.00,853.00 62.00,853.00 62.00,853.00
             62.00,853.00 62.00,790.00 62.00,790.00
             62.02,778.99 66.17,778.75 75.00,772.13
             75.00,772.13 96.00,756.63 96.00,756.63
             96.00,756.63 203.00,677.13 203.00,677.13
             203.00,677.13 253.00,639.88 253.00,639.88
             276.67,622.44 300.70,605.33 322.00,584.96
             360.61,548.04 393.70,499.90 410.67,449.00
             417.15,429.55 422.97,404.52 423.00,384.00
             423.00,384.00 423.00,368.00 423.00,368.00
             422.85,355.39 418.88,330.14 415.28,318.00
             411.73,306.04 407.75,296.34 400.65,286.00
             395.01,277.78 388.31,270.34 380.00,264.75
             368.91,257.29 351.30,253.16 338.00,253.00
             307.95,252.65 275.38,263.71 250.00,279.42
             242.06,284.34 234.30,289.61 227.00,295.45
             217.60,302.96 209.15,311.23 200.98,320.00
             183.65,338.58 169.38,361.87 161.33,386.00
             158.70,393.89 154.76,406.83 156.00,415.00 Z
           M 1004.00,348.00
           C 1007.42,337.27 1019.24,329.00 1029.00,324.26
             1054.54,311.84 1087.68,317.48 1104.84,341.00
             1110.73,349.07 1113.88,358.00 1114.00,368.00
             1114.13,379.71 1114.45,387.03 1109.22,398.00
             1093.94,429.98 1048.46,439.08 1021.00,417.48
             1003.63,403.82 997.75,386.38 998.00,365.00
             998.49,323.40 1032.32,290.86 1066.00,271.58
             1079.16,264.05 1095.36,257.16 1110.00,253.15
             1121.81,249.92 1133.80,247.33 1146.00,246.04
             1146.00,246.04 1155.00,246.04 1155.00,246.04
             1155.00,246.04 1169.00,245.00 1169.00,245.00
             1169.00,245.00 1187.00,246.00 1187.00,246.00
             1206.43,246.09 1237.48,252.14 1256.00,258.33
             1283.71,267.60 1309.31,283.80 1323.69,310.00
             1329.58,320.73 1333.65,334.80 1335.00,347.00
             1335.00,347.00 1335.00,355.00 1335.00,355.00
             1336.53,369.28 1334.51,384.33 1330.00,398.00
             1324.03,416.09 1315.73,431.40 1303.41,446.00
             1285.25,467.53 1263.95,482.28 1239.00,494.75
             1210.45,509.03 1178.41,517.73 1147.00,522.92
             1147.00,522.92 1115.00,526.83 1115.00,526.83
             1109.86,527.32 1108.47,526.45 1103.00,528.00
             1103.00,528.00 1138.00,530.85 1138.00,530.85
             1180.92,535.97 1225.58,548.13 1257.99,578.17
             1295.32,612.77 1301.26,681.33 1283.94,727.00
             1278.11,742.38 1269.76,755.99 1259.77,769.00
             1228.38,809.87 1178.85,836.68 1130.00,850.71
             1112.71,855.67 1084.83,860.97 1067.00,861.00
             1067.00,861.00 1035.00,861.00 1035.00,861.00
             1035.00,861.00 1025.00,860.08 1025.00,860.08
             985.91,856.96 946.30,842.22 919.09,813.00
             909.76,802.99 903.18,792.23 897.26,780.00
             879.75,743.83 879.57,687.64 925.00,672.36
             934.61,669.12 940.08,668.89 950.00,669.00
             982.80,669.39 1002.36,695.97 1002.00,727.00
             1001.93,733.04 1000.48,740.43 998.13,746.00
             988.47,768.87 965.96,780.28 942.00,780.00
             932.68,779.89 921.10,776.53 913.00,771.96
             901.78,765.62 896.29,758.91 890.00,748.00
             896.64,797.19 937.85,832.94 983.00,848.00
             994.50,851.84 1011.94,855.86 1024.00,856.24
             1024.00,856.24 1039.00,856.24 1039.00,856.24
             1064.94,854.84 1084.57,851.91 1107.00,837.31
             1151.17,808.54 1172.96,759.37 1181.41,709.00
             1183.02,699.45 1184.99,684.51 1185.00,675.00
             1185.07,627.64 1181.05,574.49 1137.00,546.09
             1115.73,532.37 1090.80,529.00 1066.00,529.00
             1066.00,529.00 1066.00,527.00 1066.00,527.00
             1073.09,526.07 1071.64,526.04 1079.00,526.00
             1093.65,525.92 1113.38,521.19 1127.00,515.80
             1136.91,511.87 1147.50,505.29 1156.00,498.87
             1187.08,475.38 1206.57,442.83 1217.98,406.00
             1217.98,406.00 1223.80,382.00 1223.80,382.00
             1232.47,338.42 1228.67,276.53 1180.00,258.06
             1167.31,253.25 1151.50,251.85 1138.00,252.00
             1099.43,252.45 1049.08,278.96 1024.59,308.00
             1017.29,316.66 1003.07,336.33 1004.00,348.00 Z
           M 582.00,418.00
           C 582.00,418.00 609.60,291.00 609.60,291.00
             609.60,291.00 615.42,264.00 615.42,264.00
             615.42,264.00 618.73,253.99 618.73,253.99
             618.73,253.99 626.00,253.00 626.00,253.00
             626.00,253.00 1000.00,253.00 1000.00,253.00
             1000.00,253.00 968.42,295.00 968.42,295.00
             968.42,295.00 918.42,360.00 918.42,360.00
             918.42,360.00 771.58,551.00 771.58,551.00
             771.58,551.00 706.98,635.00 706.98,635.00
             696.05,650.78 683.47,668.75 680.08,688.00
             679.37,692.05 678.79,694.85 679.29,699.00
             682.20,723.58 702.72,731.10 717.91,747.01
             735.18,765.10 737.28,776.09 737.00,800.00
             736.73,822.54 720.79,846.78 700.00,855.54
             686.32,861.30 677.34,861.16 663.00,861.00
             655.09,860.90 648.18,858.75 641.00,855.56
             635.46,853.10 630.57,849.40 626.04,845.41
             611.18,832.32 606.02,811.11 606.00,792.00
             605.97,765.62 616.92,743.14 630.20,721.00
             659.91,671.48 713.86,613.85 751.75,568.00
             751.75,568.00 844.88,448.00 844.88,448.00
             844.88,448.00 887.65,392.00 887.65,392.00
             887.65,392.00 914.00,358.00 914.00,358.00
             914.00,358.00 607.00,358.00 607.00,358.00
             604.44,358.01 600.67,357.65 598.73,359.60
             596.87,361.47 595.42,370.08 594.79,373.00
             594.79,373.00 587.65,404.00 587.65,404.00
             586.63,408.43 586.68,416.08 582.00,418.00 Z" />
</svg>
